<svg xmlns="http://www.w3.org/2000/svg" width="720" height="420" style="font-family:monospace;background:#f8fafc;border-radius:12px" viewBox="0 0 720 420"><text x="360" y="28" fill="#1e293b" font-size="13" font-weight="bold" text-anchor="middle">systems -- Systems Programming Monorepo</text><rect width="160" height="36" x="280" y="48" fill="#0071e3" rx="8"/><text x="360" y="70" fill="#fff" font-size="11" font-weight="bold" text-anchor="middle">systems/</text><path stroke="#94a3b8" stroke-dasharray="5,3" stroke-width="1.5" d="m310 84-200 46m230-46-30 46m70-46 120 46M400 84l240 46"/><rect width="180" height="50" x="20" y="130" fill="#16a34a" rx="8"/><text x="110" y="152" fill="#fff" font-size="11" font-weight="bold" text-anchor="middle">nullC</text><text x="110" y="170" fill="#dcfce7" font-size="9" text-anchor="middle">C | 3952 LOC | Complete</text><rect width="180" height="50" x="220" y="130" fill="#2563eb" rx="8"/><text x="310" y="152" fill="#fff" font-size="11" font-weight="bold" text-anchor="middle">NullOS</text><text x="310" y="170" fill="#dbeafe" font-size="9" text-anchor="middle">C, x86 ASM | 2335 LOC | WIP</text><rect width="160" height="50" x="420" y="130" fill="#16a34a" rx="8"/><text x="500" y="152" fill="#fff" font-size="11" font-weight="bold" text-anchor="middle">shell</text><text x="500" y="170" fill="#dcfce7" font-size="9" text-anchor="middle">C | 845 LOC | Complete</text><rect width="100" height="50" x="600" y="130" fill="#16a34a" rx="8"/><text x="650" y="152" fill="#fff" font-size="11" font-weight="bold" text-anchor="middle">debugger</text><text x="650" y="170" fill="#dcfce7" font-size="9" text-anchor="middle">C++ | 402 LOC</text><path stroke="#94a3b8" stroke-dasharray="5,3" stroke-width="1.5" d="M320 84 110 220M350 84l-40 136m60-136 130 136M390 84l250 136"/><rect width="180" height="50" x="20" y="220" fill="#16a34a" rx="8"/><text x="110" y="242" fill="#fff" font-size="11" font-weight="bold" text-anchor="middle">text-editor</text><text x="110" y="260" fill="#dcfce7" font-size="9" text-anchor="middle">Python | 88 LOC | Complete</text><rect width="180" height="50" x="220" y="220" fill="#dc2626" rx="8"/><text x="310" y="242" fill="#fff" font-size="11" font-weight="bold" text-anchor="middle">container-runtime</text><text x="310" y="260" fill="#fecaca" font-size="9" text-anchor="middle">Rust | 0 LOC | Skeleton</text><rect width="160" height="50" x="420" y="220" fill="#16a34a" rx="8"/><text x="500" y="242" fill="#fff" font-size="11" font-weight="bold" text-anchor="middle">profiler</text><text x="500" y="260" fill="#dcfce7" font-size="9" text-anchor="middle">Python, C | 1223 LOC</text><rect width="100" height="50" x="600" y="220" fill="#d97706" rx="8"/><text x="650" y="242" fill="#fff" font-size="11" font-weight="bold" text-anchor="middle">static-analyzer</text><text x="650" y="260" fill="#fef3c7" font-size="9" text-anchor="middle">Python | 64 LOC</text><rect width="12" height="12" x="30" y="310" fill="#16a34a" rx="3"/><text x="48" y="320" fill="#475569" font-size="9">Complete</text><rect width="12" height="12" x="120" y="310" fill="#2563eb" rx="3"/><text x="138" y="320" fill="#475569" font-size="9">WIP</text><rect width="12" height="12" x="180" y="310" fill="#d97706" rx="3"/><text x="198" y="320" fill="#475569" font-size="9">Stub</text><rect width="12" height="12" x="250" y="310" fill="#dc2626" rx="3"/><text x="268" y="320" fill="#475569" font-size="9">Skeleton</text><text x="560" y="320" fill="#94a3b8" font-size="9" text-anchor="middle">~8,900 LOC total</text><rect width="660" height="55" x="30" y="350" fill="#f1f5f9" stroke="#e2e8f0" rx="8"/><text x="360" y="370" fill="#1e293b" font-size="10" font-weight="bold" text-anchor="middle">Priority Roadmap</text><text x="360" y="388" fill="#475569" font-size="9" text-anchor="middle">1. container-runtime (implement from skeleton)  2. static-analyzer (flesh out from stub)  3. NullOS Phase 3 (filesystem)</text></svg>