<svg xmlns="http://www.w3.org/2000/svg" width="200" height="200" viewBox="0 0 200 200"><rect width="200" height="200" fill="#f5f5f7" stroke="#d1d5db" rx="32"/><rect width="140" height="95" x="30" y="35" fill="#1e293b" stroke="#059669" stroke-width="1.5" opacity=".9" rx="8"/><circle cx="46" cy="48" r="4" fill="#ff5f57" opacity=".7"/><circle cx="60" cy="48" r="4" fill="#febc2e" opacity=".7"/><circle cx="74" cy="48" r="4" fill="#28c840" opacity=".7"/><text x="45" y="75" fill="#059669" font-family="monospace" font-size="11" opacity=".9">$ nullc main.c</text><text x="45" y="90" fill="#059669" font-family="monospace" font-size="11" opacity=".5">compiling...</text><text x="45" y="105" fill="#059669" font-family="monospace" font-size="11" opacity=".7">0 errors</text><path fill="#059669" d="M45 112h8v12h-8z" opacity=".6"/><path stroke="#059669" stroke-width="1.5" d="M50 150h30m0 0v15m0 0h40m0 0v-15m0 0h35" opacity=".3"/><circle cx="80" cy="150" r="3" fill="#059669" opacity=".4"/><circle cx="120" cy="165" r="3" fill="#059669" opacity=".4"/><circle cx="100" cy="155" r="3" fill="#059669" opacity=".4"/><path stroke="#059669" d="M100 155v10" opacity=".3"/><path stroke="#059669" d="M40 180h120" opacity=".15"/><path stroke="#059669" d="M45 175h110" opacity=".1"/></svg>