<svg xmlns="http://www.w3.org/2000/svg" viewBox="0 0 200 200" width="200" height="200">
  <rect width="200" height="200" rx="32" fill="#f5f5f7" stroke="#d1d5db" stroke-width="1"/>
  <!-- Terminal window -->
  <rect x="30" y="35" width="140" height="95" rx="8" fill="#1e293b" stroke="#059669" stroke-width="1.5" opacity="0.9"/>
  <!-- Title bar dots -->
  <circle cx="46" cy="48" r="4" fill="#ff5f57" opacity="0.7"/>
  <circle cx="60" cy="48" r="4" fill="#febc2e" opacity="0.7"/>
  <circle cx="74" cy="48" r="4" fill="#28c840" opacity="0.7"/>
  <!-- Terminal text -->
  <text x="45" y="75" font-family="monospace" font-size="11" fill="#059669" opacity="0.9">$ nullc main.c</text>
  <text x="45" y="90" font-family="monospace" font-size="11" fill="#059669" opacity="0.5">compiling...</text>
  <text x="45" y="105" font-family="monospace" font-size="11" fill="#059669" opacity="0.7">0 errors</text>
  <rect x="45" y="112" width="8" height="12" fill="#059669" opacity="0.6"/>
  <!-- Circuit board traces below -->
  <line x1="50" y1="150" x2="80" y2="150" stroke="#059669" stroke-width="1.5" opacity="0.3"/>
  <line x1="80" y1="150" x2="80" y2="165" stroke="#059669" stroke-width="1.5" opacity="0.3"/>
  <line x1="80" y1="165" x2="120" y2="165" stroke="#059669" stroke-width="1.5" opacity="0.3"/>
  <line x1="120" y1="165" x2="120" y2="150" stroke="#059669" stroke-width="1.5" opacity="0.3"/>
  <line x1="120" y1="150" x2="155" y2="150" stroke="#059669" stroke-width="1.5" opacity="0.3"/>
  <!-- Circuit nodes -->
  <circle cx="80" cy="150" r="3" fill="#059669" opacity="0.4"/>
  <circle cx="120" cy="165" r="3" fill="#059669" opacity="0.4"/>
  <circle cx="100" cy="155" r="3" fill="#059669" opacity="0.4"/>
  <line x1="100" y1="155" x2="100" y2="165" stroke="#059669" stroke-width="1" opacity="0.3"/>
  <!-- Layer lines -->
  <line x1="40" y1="180" x2="160" y2="180" stroke="#059669" stroke-width="1" opacity="0.15"/>
  <line x1="45" y1="175" x2="155" y2="175" stroke="#059669" stroke-width="1" opacity="0.1"/>
</svg>
