<svg xmlns="http://www.w3.org/2000/svg" width="200" height="200" viewBox="0 0 200 200">
  <rect width="200" height="200" fill="#1a1a1a" rx="32"/>
  <!-- Outer glass panel -->
  <rect x="32" y="32" width="136" height="136" rx="14" fill="rgba(255,255,255,0.06)" stroke="rgba(255,255,255,0.12)" stroke-width="1"/>
  <!-- CPU die glass -->
  <rect x="60" y="60" width="80" height="80" rx="10" fill="rgba(255,255,255,0.08)" stroke="rgba(255,255,255,0.15)" stroke-width="1"/>
  <!-- Inner die -->
  <rect x="76" y="76" width="48" height="48" rx="6" fill="rgba(255,255,255,0.06)" stroke="rgba(255,255,255,0.2)" stroke-width="0.8"/>
  <!-- Die detail lines -->
  <line x1="82" y1="82" x2="118" y2="82" stroke="rgba(255,255,255,0.08)" stroke-width="0.5"/>
  <line x1="82" y1="92" x2="118" y2="92" stroke="rgba(255,255,255,0.06)" stroke-width="0.5"/>
  <line x1="82" y1="102" x2="118" y2="102" stroke="rgba(255,255,255,0.06)" stroke-width="0.5"/>
  <line x1="82" y1="112" x2="118" y2="112" stroke="rgba(255,255,255,0.08)" stroke-width="0.5"/>
  <line x1="92" y1="82" x2="92" y2="118" stroke="rgba(255,255,255,0.05)" stroke-width="0.5"/>
  <line x1="108" y1="82" x2="108" y2="118" stroke="rgba(255,255,255,0.05)" stroke-width="0.5"/>
  <!-- Center core -->
  <rect x="92" y="92" width="16" height="16" rx="3" fill="rgba(255,255,255,0.12)" stroke="rgba(255,255,255,0.25)" stroke-width="0.6"/>
  <!-- Top pins -->
  <rect x="74" y="44" width="3" height="14" rx="1" fill="rgba(255,255,255,0.3)"/>
  <rect x="86" y="44" width="3" height="14" rx="1" fill="rgba(255,255,255,0.3)"/>
  <rect x="98" y="44" width="3" height="14" rx="1" fill="rgba(255,255,255,0.3)"/>
  <rect x="110" y="44" width="3" height="14" rx="1" fill="rgba(255,255,255,0.3)"/>
  <rect x="122" y="44" width="3" height="14" rx="1" fill="rgba(255,255,255,0.3)"/>
  <!-- Bottom pins -->
  <rect x="74" y="142" width="3" height="14" rx="1" fill="rgba(255,255,255,0.3)"/>
  <rect x="86" y="142" width="3" height="14" rx="1" fill="rgba(255,255,255,0.3)"/>
  <rect x="98" y="142" width="3" height="14" rx="1" fill="rgba(255,255,255,0.3)"/>
  <rect x="110" y="142" width="3" height="14" rx="1" fill="rgba(255,255,255,0.3)"/>
  <rect x="122" y="142" width="3" height="14" rx="1" fill="rgba(255,255,255,0.3)"/>
  <!-- Left pins -->
  <rect x="44" y="74" width="14" height="3" rx="1" fill="rgba(255,255,255,0.3)"/>
  <rect x="44" y="86" width="14" height="3" rx="1" fill="rgba(255,255,255,0.3)"/>
  <rect x="44" y="98" width="14" height="3" rx="1" fill="rgba(255,255,255,0.3)"/>
  <rect x="44" y="110" width="14" height="3" rx="1" fill="rgba(255,255,255,0.3)"/>
  <rect x="44" y="122" width="14" height="3" rx="1" fill="rgba(255,255,255,0.3)"/>
  <!-- Right pins -->
  <rect x="142" y="74" width="14" height="3" rx="1" fill="rgba(255,255,255,0.3)"/>
  <rect x="142" y="86" width="14" height="3" rx="1" fill="rgba(255,255,255,0.3)"/>
  <rect x="142" y="98" width="14" height="3" rx="1" fill="rgba(255,255,255,0.3)"/>
  <rect x="142" y="110" width="14" height="3" rx="1" fill="rgba(255,255,255,0.3)"/>
  <rect x="142" y="122" width="14" height="3" rx="1" fill="rgba(255,255,255,0.3)"/>
</svg>