<svg xmlns="http://www.w3.org/2000/svg" viewBox="0 0 200 200" width="200" height="200">
  <rect width="200" height="200" rx="24" fill="#0c0c0c"/>
  <rect x="20" y="20" width="160" height="160" rx="12" fill="#1a1a1a" stroke="#333" stroke-width="1"/>
  <rect x="20" y="20" width="160" height="24" rx="12" fill="#222"/>
  <circle cx="36" cy="32" r="4" fill="#ff5f57"/>
  <circle cx="50" cy="32" r="4" fill="#febc2e"/>
  <circle cx="64" cy="32" r="4" fill="#28c840"/>
  <text x="32" y="66" font-family="SF Mono, Menlo, monospace" font-size="10" fill="#4a9eff">CPU Profile</text>
  <text x="120" y="66" font-family="SF Mono, Menlo, monospace" font-size="10" fill="#888">2.3s</text>
  <rect x="32" y="74" width="120" height="8" rx="2" fill="#222"/>
  <rect x="32" y="74" width="96" height="8" rx="2" fill="#ff5f57"/>
  <text x="32" y="94" font-family="SF Mono, Menlo, monospace" font-size="9" fill="#ccc">main()</text>
  <text x="120" y="94" font-family="SF Mono, Menlo, monospace" font-size="9" fill="#ff5f57">80%</text>
  <rect x="32" y="100" width="120" height="8" rx="2" fill="#222"/>
  <rect x="32" y="100" width="48" height="8" rx="2" fill="#febc2e"/>
  <text x="32" y="120" font-family="SF Mono, Menlo, monospace" font-size="9" fill="#ccc">parse()</text>
  <text x="120" y="120" font-family="SF Mono, Menlo, monospace" font-size="9" fill="#febc2e">40%</text>
  <rect x="32" y="126" width="120" height="8" rx="2" fill="#222"/>
  <rect x="32" y="126" width="18" height="8" rx="2" fill="#28c840"/>
  <text x="32" y="146" font-family="SF Mono, Menlo, monospace" font-size="9" fill="#ccc">alloc()</text>
  <text x="120" y="146" font-family="SF Mono, Menlo, monospace" font-size="9" fill="#28c840">15%</text>
  <text x="32" y="168" font-family="SF Mono, Menlo, monospace" font-size="9" fill="#555">3 functions sampled</text>
</svg>
