<svg xmlns="http://www.w3.org/2000/svg" font-family="-apple-system, system-ui, sans-serif" viewBox="0 0 800 200"><defs><marker id="arrowhead" markerHeight="7" markerWidth="10" orient="auto" refX="10" refY="3.5"><path fill="#666" d="m0 0 10 3.5L0 7z"/></marker><style>.box{fill:#1a1a1a;stroke:#0071e3;stroke-width:2}.label,.sub{fill:#e0e0e0;font-size:13px;text-anchor:middle}.sub{fill:#888;font-size:10px}.arrow{stroke:#666;stroke-width:2;fill:none;marker-end:url(#arrowhead)}</style></defs><path fill="#111" d="M0 0h800v200H0z"/><rect width="100" height="50" x="20" y="75" class="box" rx="8"/><text x="70" y="97" class="label">bots/</text><text x="70" y="113" class="sub">monorepo</text><path d="m122 88 36-48" class="arrow"/><path d="M122 100h36" class="arrow"/><path d="m122 112 36 48" class="arrow"/><rect width="130" height="40" x="160" y="18" class="box" rx="8"/><text x="225" y="35" class="label">fony</text><text x="225" y="50" class="sub">AI phone calls</text><rect width="130" height="40" x="160" y="78" class="box" rx="8"/><text x="225" y="95" class="label">foodie</text><text x="225" y="110" class="sub">food points API</text><rect width="130" height="40" x="160" y="138" class="box" rx="8"/><text x="225" y="155" class="label">callie</text><text x="225" y="170" class="sub">daily briefing</text><path d="M292 38h76" class="arrow"/><path d="M292 98h76" class="arrow"/><path d="M292 158h76" class="arrow"/><rect width="130" height="40" x="370" y="18" class="box" rx="8"/><text x="435" y="35" class="label">Twilio</text><text x="435" y="50" class="sub">voice + TTS</text><rect width="130" height="40" x="370" y="78" class="box" rx="8"/><text x="435" y="95" class="label">External APIs</text><text x="435" y="110" class="sub">DoorDash, etc.</text><rect width="130" height="40" x="370" y="138" class="box" rx="8"/><text x="435" y="155" class="label">Twilio</text><text x="435" y="170" class="sub">scheduled calls</text><path d="m502 38 46 42" class="arrow"/><path d="m502 158 46-43" class="arrow"/><rect width="120" height="70" x="550" y="60" class="box" rx="8"/><text x="610" y="90" class="label">Phone</text><text x="610" y="106" class="sub">USER_PHONE</text></svg>