<svg xmlns="http://www.w3.org/2000/svg" font-family="-apple-system, system-ui, sans-serif" viewBox="0 0 800 200"><defs><marker id="arrowhead" markerHeight="7" markerWidth="10" orient="auto" refX="10" refY="3.5"><path fill="#666" d="m0 0 10 3.5L0 7z"/></marker><style>.box{fill:#1a1a1a;stroke:#0071e3;stroke-width:2}.label,.sub{fill:#e0e0e0;font-size:13px;text-anchor:middle}.sub{fill:#888;font-size:10px}.arrow{stroke:#666;stroke-width:2;fill:none;marker-end:url(#arrowhead)}</style></defs><path fill="#111" d="M0 0h800v200H0z"/><rect width="110" height="50" x="20" y="75" class="box" rx="8"/><text x="75" y="97" class="label">jot/</text><text x="75" y="113" class="sub">repo root</text><path d="m132 88 36-53" class="arrow"/><path d="M132 100h36" class="arrow"/><path d="m132 112 36 53" class="arrow"/><rect width="120" height="40" x="170" y="15" class="box" rx="8"/><text x="230" y="32" class="label">jot</text><text x="230" y="47" class="sub">C99 interpreter</text><rect width="120" height="40" x="170" y="80" class="box" rx="8"/><text x="230" y="97" class="label">examples</text><text x="230" y="112" class="sub">sample .jot programs</text><rect width="120" height="40" x="170" y="145" class="box" rx="8"/><text x="230" y="162" class="label">docs</text><text x="230" y="177" class="sub">landing page</text><path d="M292 35h46" class="arrow"/><rect width="100" height="40" x="340" y="15" class="box" rx="8"/><text x="390" y="32" class="label">Lexer</text><text x="390" y="47" class="sub">tokenize</text><path d="M442 35h36" class="arrow"/><rect width="100" height="40" x="480" y="15" class="box" rx="8"/><text x="530" y="32" class="label">Parser</text><text x="530" y="47" class="sub">AST</text><path d="M582 35h36" class="arrow"/><rect width="110" height="40" x="620" y="15" class="box" rx="8"/><text x="675" y="32" class="label">Tree Walker</text><text x="675" y="47" class="sub">eval + stdlib</text><path d="M292 100h46" class="arrow"/><rect width="100" height="40" x="340" y="80" class="box" rx="8"/><text x="390" y="97" class="label">Samples</text><text x="390" y="112" class="sub">syntax coverage</text><path d="M442 100h36" class="arrow"/><rect width="100" height="40" x="480" y="80" class="box" rx="8"/><text x="530" y="97" class="label">Fixtures</text><text x="530" y="112" class="sub">feature demos</text><path d="M582 100h36" class="arrow"/><rect width="110" height="40" x="620" y="80" class="box" rx="8"/><text x="675" y="97" class="label">CLI Usage</text><text x="675" y="112" class="sub">run + inspect</text><path d="M292 165h46" class="arrow"/><rect width="100" height="40" x="340" y="145" class="box" rx="8"/><text x="390" y="162" class="label">Overview</text><text x="390" y="177" class="sub">language intro</text><path d="M442 165h36" class="arrow"/><rect width="100" height="40" x="480" y="145" class="box" rx="8"/><text x="530" y="162" class="label">Examples</text><text x="530" y="177" class="sub">copy-paste start</text><path d="M582 165h36" class="arrow"/><rect width="110" height="40" x="620" y="145" class="box" rx="8"/><text x="675" y="162" class="label">GitHub</text><text x="675" y="177" class="sub">nulljosh/jot</text></svg>