<svg xmlns="http://www.w3.org/2000/svg" viewBox="0 0 200 200" width="200" height="200">
  <rect width="200" height="200" rx="24" fill="#0c0c0c"/>
  <rect x="20" y="20" width="160" height="160" rx="12" fill="#1a1a1a" stroke="#333" stroke-width="1"/>
  <rect x="20" y="20" width="160" height="24" rx="12" fill="#222"/>
  <circle cx="36" cy="32" r="4" fill="#ff5f57"/>
  <circle cx="50" cy="32" r="4" fill="#febc2e"/>
  <circle cx="64" cy="32" r="4" fill="#28c840"/>
  <text x="100" y="36" font-family="SF Mono, Menlo, monospace" font-size="9" fill="#888" text-anchor="middle">editor.py</text>
  <text x="30" y="62" font-family="SF Mono, Menlo, monospace" font-size="9" fill="#555"> 1</text>
  <text x="48" y="62" font-family="SF Mono, Menlo, monospace" font-size="10" fill="#4a9eff">def</text>
  <text x="72" y="62" font-family="SF Mono, Menlo, monospace" font-size="10" fill="#ccc"> main():</text>
  <text x="30" y="76" font-family="SF Mono, Menlo, monospace" font-size="9" fill="#555"> 2</text>
  <text x="56" y="76" font-family="SF Mono, Menlo, monospace" font-size="10" fill="#ccc">screen = curses</text>
  <text x="30" y="90" font-family="SF Mono, Menlo, monospace" font-size="9" fill="#555"> 3</text>
  <text x="56" y="90" font-family="SF Mono, Menlo, monospace" font-size="10" fill="#ccc">buf = Buffer()</text>
  <text x="30" y="104" font-family="SF Mono, Menlo, monospace" font-size="9" fill="#555"> 4</text>
  <text x="56" y="104" font-family="SF Mono, Menlo, monospace" font-size="10" fill="#4a9eff">while</text>
  <text x="88" y="104" font-family="SF Mono, Menlo, monospace" font-size="10" fill="#ccc"> True:</text>
  <text x="30" y="118" font-family="SF Mono, Menlo, monospace" font-size="9" fill="#555"> 5</text>
  <text x="64" y="118" font-family="SF Mono, Menlo, monospace" font-size="10" fill="#ccc">render()</text>
  <text x="30" y="132" font-family="SF Mono, Menlo, monospace" font-size="9" fill="#555"> 6</text>
  <text x="64" y="132" font-family="SF Mono, Menlo, monospace" font-size="10" fill="#ccc">handle_key()</text>
  <rect x="28" y="148" width="144" height="16" rx="2" fill="#333"/>
  <text x="32" y="160" font-family="SF Mono, Menlo, monospace" font-size="9" fill="#28c840">-- INSERT --</text>
  <text x="130" y="160" font-family="SF Mono, Menlo, monospace" font-size="9" fill="#888">6:1</text>
</svg>
