<svg xmlns="http://www.w3.org/2000/svg" viewBox="0 0 400 300" width="400" height="300">
  <style>
    text { font-family: -apple-system, BlinkMacSystemFont, sans-serif; }
    .title { font-size: 16px; font-weight: 600; fill: #1d1d1f; }
    .label { font-size: 11px; font-weight: 500; fill: #1d1d1f; }
    .sub { font-size: 9px; fill: #86868b; }
    .node { fill: #f5f5f7; stroke: #d2d2d7; stroke-width: 1; rx: 8; }
    .center { fill: #0071e3; rx: 12; }
    .line { stroke: #d2d2d7; stroke-width: 1; fill: none; }
  </style>
  <rect width="400" height="300" fill="white"/>

  <!-- Center node -->
  <rect class="center" x="150" y="120" width="100" height="40"/>
  <text x="200" y="145" text-anchor="middle" fill="white" class="title">NullOS</text>

  <!-- Bootloader -->
  <rect class="node" x="20" y="20" width="100" height="44"/>
  <text x="70" y="40" text-anchor="middle" class="label">Bootloader</text>
  <text x="70" y="53" text-anchor="middle" class="sub">Stage 1 + Stage 2</text>
  <line class="line" x1="110" y1="52" x2="160" y2="125"/>

  <!-- Kernel -->
  <rect class="node" x="150" y="15" width="100" height="44"/>
  <text x="200" y="35" text-anchor="middle" class="label">Kernel</text>
  <text x="200" y="48" text-anchor="middle" class="sub">kmain Entry Point</text>
  <line class="line" x1="200" y1="59" x2="200" y2="120"/>

  <!-- Memory -->
  <rect class="node" x="280" y="20" width="100" height="44"/>
  <text x="330" y="40" text-anchor="middle" class="label">Memory</text>
  <text x="330" y="53" text-anchor="middle" class="sub">Paging + Heap</text>
  <line class="line" x1="290" y1="52" x2="240" y2="125"/>

  <!-- Drivers -->
  <rect class="node" x="290" y="125" width="100" height="44"/>
  <text x="340" y="145" text-anchor="middle" class="label">Drivers</text>
  <text x="340" y="158" text-anchor="middle" class="sub">VGA, Keyboard, ATA</text>
  <line class="line" x1="250" y1="140" x2="290" y2="142"/>

  <!-- Interrupts -->
  <rect class="node" x="10" y="125" width="100" height="44"/>
  <text x="60" y="145" text-anchor="middle" class="label">Interrupts</text>
  <text x="60" y="158" text-anchor="middle" class="sub">IDT + ISR + IRQ</text>
  <line class="line" x1="110" y1="147" x2="150" y2="140"/>

  <!-- Scheduler -->
  <rect class="node" x="20" y="225" width="100" height="44"/>
  <text x="70" y="245" text-anchor="middle" class="label">Scheduler</text>
  <text x="70" y="258" text-anchor="middle" class="sub">Round-Robin</text>
  <line class="line" x1="100" y1="225" x2="170" y2="160"/>

  <!-- Shell -->
  <rect class="node" x="150" y="235" width="100" height="44"/>
  <text x="200" y="255" text-anchor="middle" class="label">Shell</text>
  <text x="200" y="268" text-anchor="middle" class="sub">Command Interface</text>
  <line class="line" x1="200" y1="235" x2="200" y2="160"/>

  <!-- Lib -->
  <rect class="node" x="280" y="225" width="100" height="44"/>
  <text x="330" y="245" text-anchor="middle" class="label">Lib</text>
  <text x="330" y="258" text-anchor="middle" class="sub">string, printf</text>
  <line class="line" x1="290" y1="235" x2="230" y2="160"/>
</svg>